<svg xmlns="http://www.w3.org/2000/svg" viewBox="0 0 64 64" role="img" aria-label="Jair Cantor Consulting">
  <defs>
    <linearGradient id="mark" x1="10" y1="8" x2="54" y2="56" gradientUnits="userSpaceOnUse">
      <stop stop-color="#102b57"/>
      <stop offset="0.55" stop-color="#236aa5"/>
      <stop offset="1" stop-color="#00c2a8"/>
    </linearGradient>
  </defs>
  <rect width="64" height="64" rx="16" fill="url(#mark)"/>
  <path d="M18 44c2.6 3.2 6.4 4.8 11.1 4.8 8 0 12.9-4.8 12.9-13V15h-8.5v20.5c0 3.8-1.8 5.9-5.2 5.9-2.3 0-4.2-1-5.8-3L18 44Z" fill="#fff"/>
  <path d="M42.5 48.2c4.7 0 8.8-1.9 11.5-5.1l-4.7-5.3c-1.7 1.9-3.7 2.9-6.2 2.9-4.8 0-8.1-3.6-8.1-8.7s3.3-8.7 8.1-8.7c2.5 0 4.5 1 6.2 2.9L54 20.9c-2.7-3.2-6.8-5.1-11.5-5.1-9.3 0-16.2 6.8-16.2 16.2s6.9 16.2 16.2 16.2Z" fill="#d8fff8" opacity="0.92"/>
</svg>
