<svg xmlns="http://www.w3.org/2000/svg" viewBox="0 0 64 64" role="img" aria-label="Sabiduria, datos y magia">
  <defs>
    <linearGradient id="bg" x1="8" y1="6" x2="56" y2="58" gradientUnits="userSpaceOnUse">
      <stop stop-color="#071a3a"/>
      <stop offset="0.58" stop-color="#102b57"/>
      <stop offset="1" stop-color="#052f46"/>
    </linearGradient>
    <linearGradient id="hat" x1="18" y1="12" x2="48" y2="47" gradientUnits="userSpaceOnUse">
      <stop stop-color="#7c4dff"/>
      <stop offset="0.56" stop-color="#3157ff"/>
      <stop offset="1" stop-color="#00d6c9"/>
    </linearGradient>
  </defs>
  <rect width="64" height="64" rx="14" fill="url(#bg)"/>
  <path d="M21 39 33 9c4 9 9 15 17 22-8 1-17 4-29 8Z" fill="#10162f" stroke="url(#hat)" stroke-width="3.2" stroke-linejoin="round"/>
  <path d="M16 42c11-5 22-7 34-5 2 .4 3.7 2 3.9 4.1C39 42.5 28 45.8 15 51c-2.1-2.9-1.8-7 1-9Z" fill="#0d1430" stroke="#8eeeff" stroke-width="3" stroke-linejoin="round"/>
  <path d="M28 33c3.3-1 6.6-1.6 10-1.9" fill="none" stroke="#bca8ff" stroke-width="2.4" stroke-linecap="round"/>
  <path d="M24 45h16M24 45l-6 5M40 45l7 4" fill="none" stroke="#00d6c9" stroke-width="2.2" stroke-linecap="round"/>
  <circle cx="24" cy="45" r="3.4" fill="#dffcff" stroke="#00d6c9" stroke-width="1.7"/>
  <circle cx="40" cy="45" r="3.4" fill="#dffcff" stroke="#00d6c9" stroke-width="1.7"/>
  <circle cx="18" cy="50" r="2.7" fill="#dffcff" stroke="#8b6cff" stroke-width="1.5"/>
  <circle cx="47" cy="49" r="2.7" fill="#dffcff" stroke="#8b6cff" stroke-width="1.5"/>
  <path d="M48 12 50 17l5 2-5 2-2 5-2-5-5-2 5-2 2-5Z" fill="#eaffff"/>
  <path d="M33 14 34.6 18.5 39 20l-4.4 1.5L33 26l-1.6-4.5L27 20l4.4-1.5L33 14Z" fill="#9cf8ff" opacity=".94"/>
</svg>
